<?xml version="1.0" encoding="utf-8"?>
<!-- Generator: Adobe Illustrator 19.2.0, SVG Export Plug-In . SVG Version: 6.00 Build 0)  -->
<svg version="1.1" id="Layer_1" xmlns="http://www.w3.org/2000/svg" xmlns:xlink="http://www.w3.org/1999/xlink" x="0px" y="0px"
	 viewBox="0 0 1085.6 200" style="enable-background:new 0 0 1085.6 200;" xml:space="preserve">
<style type="text/css">
	.st0{fill:#FFFFFF;}
</style>
<g>
	<path class="st0" d="M871.8,125.8L871.8,125.8L871.8,125.8z"/>
	<path class="st0" d="M916.4,135.2c0.7-0.3,1.7-0.5,2.4-0.8c3.7-1.8,6.9-4.7,8.6-8.5c1.7-3.8,2-7.8,2.1-12.5c0-10.4,0-20.7,0-31.1
		c0-9.8,0-19.6,0-29.4l0,0c0-2.3,0-4.6,0-7c0-1.7,0-3.5-0.1-5.2c-0.2-7.1-2.1-13.4-6.4-18c-4.3-4.7-10.5-7-17.4-7.8
		c-2.4-0.3-4.8-0.4-7.2-0.4c-9.5,0-19,0-28.5,0c-8.3,0-16.7,0-25,0c-1.4,0-2.8,0-4.4,0c-1.5,0-3,0.6-4.1,1.7s-1.7,2.6-1.7,4.1
		c0,54.7,0,108.7,0,162.6c0,1.5,0.6,3,1.7,4.1c1.1,1.1,2.6,1.7,4.1,1.7c10.7,0,21.1,0,31.8,0c1.5,0,3-0.6,4.1-1.7
		c1.1-1.1,1.7-2.6,1.7-4.1c0-1.1,0-2.1,0-3v-1.4l0,0v-0.2c0-5.9,0-11.9,0-17.8c0-1.7,0-3.4,0-5.1c3,9.8,6,19.6,9,29.4
		c0.8,2.5,3,4.1,5.6,4.1c11.2,0,22.1,0,33.3,0c1.9,0,3.6-0.9,4.7-2.4c1.1-1.5,1.4-3.5,0.8-5.3C926.4,165.7,921.4,150.5,916.4,135.2z
		 M888,147.9c-1.6-5.2-3.2-10.4-4.7-15.5c-0.4-1.2-0.8-2.5-1.9-4.1c-1-1.5-3.6-3.2-6.3-3.2c-1.3,0-2.4,0.3-3.4,0.7
		c-1.5,0.7-2.3,1.5-3,2.2c-1.7,2.3-2.2,3.9-2.4,6.6c-0.1,8.6-0.1,17.2-0.1,25.8c0,5.5,0,11,0,16.6c-6.7,0-13.4,0-20.1,0
		c0-50.1,0-100.2,0-150.9c7.9,0,15.7,0,23.6,0c9.5,0,19,0,28.4,0c2,0,4,0.1,6,0.3c5.3,0.6,8.3,2.1,10.1,4.1s3.1,5.1,3.3,10.5
		c0.1,1.6,0.1,3.2,0.1,4.8c0,2.3,0,4.6,0,7l0,0l0,0c0,9.8,0,19.6,0,29.4c0,10.4,0,20.7,0,31.1c0,5.4-0.8,7.7-1.7,8.7
		c-0.5,0.6-1.1,1.1-2.4,1.8c-1.3,0.7-3.3,1.3-5.9,2c-1.6,0.4-2.9,1.4-3.7,2.8c-0.8,1.4-1,3.1-0.4,4.7c4.8,14.5,9.5,29.1,14.3,43.7
		c-7,0-13.9,0-20.9,0C893.9,167.4,891,157.7,888,147.9z"/>
	<path class="st0" d="M897.1,104.2c0.4-1.6,0.4-2.9,0.4-4.3v-3c0-1.5,0-3,0-4.5l0,0c0-1.1,0-2.2,0-3.3c0-4.2,0-8.4,0-12.6
		c0-7.7,0-15.4,0-23c0-1.1,0.1-2.8-0.8-5.3c-0.5-1.2-1.5-2.7-3-3.7s-3.2-1.4-4.7-1.5c-2.3-0.1-4.6-0.1-6.9-0.1c-3.2,0-6.5,0-9.7,0
		c-1.5,0-3,0.6-4.1,1.7c-1.1,1.1-1.7,2.6-1.7,4.1c0,18.9,0,37.4,0,56.4c0,1.5,0.6,3,1.7,4.1s2.6,1.7,4.1,1.7c3,0,5.8,0,8.7,0
		c1.8,0,3.7,0,5.5,0c1.3,0,2.4,0,3.8-0.3c1-0.2,2.2-0.6,3.4-1.5C895.7,107.9,896.8,105.7,897.1,104.2z M878.3,99.3
		c0-15,0-29.8,0-44.7c1.3,0,2.6,0,3.8,0c1.3,0,2.5,0,3.7,0.1c0,7.3,0,14.6,0,21.9c0,4.2,0,8.4,0,12.6c0,1.1,0,2.2,0,3.3
		c0,1.5,0,3,0,4.5v2.4c-1.6,0-3.1,0-4.7,0C880.2,99.3,879.2,99.3,878.3,99.3z"/>
	<path class="st0" d="M727.2,35.3c-0.8-5.4-3.1-10.3-6.8-14s-8.9-6-14.6-6.2c-8.6-0.3-17.1-0.4-25.7-0.4c-8.7,0-17.4,0.1-26.1,0.4
		c-5.3,0.1-10.3,2.1-13.9,5.4c-3.7,3.3-6,7.8-7.1,12.7c-0.8,3.7-1,7.2-1,10.5c0,9.5,0,19,0,28.6c0,9.5,0,18.9,0,28.4
		c0,0.2,0.1,0.4,0.1,0.5c0,12-0.1,23.9-0.1,35.9c0,8.5,0,17.1,0.1,25.6c0.1,6.7,2.2,13,6.4,17.6s10.2,7.3,17,7.9
		c6.5,0.6,12.9,0.6,19.1,0.6c2.7,0,5.4,0,8.1,0h0.5h3.1c6,0,12.2-0.1,18.5-0.7c6-0.6,11.5-3,15.4-7s6.2-9.4,6.9-15.3
		c0.4-2.9,0.6-5.8,0.6-8.9c0-18.6,0-37.2,0-55.8c0-19,0-37.9,0-56.9C727.9,41.3,727.7,38.2,727.2,35.3z M716.3,157
		c0,2.4-0.2,4.9-0.5,7.5c-0.5,3.9-1.8,6.7-3.7,8.6c-1.9,1.9-4.4,3.2-8.2,3.6c-5.6,0.6-11.4,0.6-17.3,0.6h-3.1h-0.6
		c-2.7,0-5.4,0-8.1,0c-6.2,0-12.2-0.1-18.1-0.6c-4.4-0.4-7.4-1.9-9.4-4.1c-2-2.2-3.3-5.3-3.3-9.8c-0.1-8.5-0.1-17-0.1-25.5
		c0-12.1,0.1-24.3,0.1-36.5c0-0.2-0.1-0.4-0.1-0.6c0-9.3,0-18.6,0-27.9c0-9.5,0-19,0-28.5c0-2.9,0.2-5.6,0.7-8c0.7-3,2-5.2,3.6-6.6
		s3.6-2.3,6.4-2.4c8.6-0.2,17.2-0.3,25.8-0.3c8.4,0,16.9,0.1,25.3,0.4c2.9,0.1,5,1.1,6.7,2.8c1.7,1.7,3,4.2,3.5,7.4
		c0.4,2.4,0.6,4.9,0.6,7.3c0,19,0,37.9,0,56.9C716.3,119.8,716.3,138.4,716.3,157z"/>
	<path class="st0" d="M695.2,101.6v-2.3v-1.2l0,0v-0.5c0-7.9,0-15.7,0-23.6c0-6.6,0-13.3,0-19.9c0-1.3,0-2.5-0.3-3.9
		c-0.2-1-0.5-2.3-1.4-3.5c-1.3-2-3.6-3.1-5.1-3.4c-1.6-0.4-2.9-0.4-4.4-0.4h-1.3c-1.9,0-3.7,0-5.5,0h-2.8h-0.3
		c-2.1,0-4.8,0.6-6.9,2.6c-2.1,2.1-2.6,4.8-2.6,6.8l0,0c0,2.6-0.1,5.2-0.1,7.9c0,14,0,28,0,42.1c0,15.6,0,31.2,0,46.8
		c0,1.4,0,2.7,0.2,4.1c0.2,1.1,0.5,2.3,1.4,3.7c1.3,2.1,3.8,3.3,5.4,3.6c1.7,0.3,3,0.3,4.6,0.4c1.2,0,2.4,0,3.6,0c1.3,0,2.6,0,3.9,0
		c1.4,0,2.7,0,4.1-0.3c1.1-0.2,2.4-0.5,3.7-1.4l2.5-2.7c0.9-1.5,1.1-2.9,1.2-4c0.1-1.2,0.1-2.3,0.1-3.5c0-6.9,0-13.8,0-20.7
		c0-8.5,0-16.9,0-25.4L695.2,101.6L695.2,101.6z M679.6,149c-1.2,0-2.3,0-3.4,0l0,0c0-15.6,0-31.2,0-46.8c0-14,0-28,0-42.1
		c0-1.9,0-3.8,0-5.6h1c1.9,0,3.7,0,5.5,0h0.8c0,6.5,0,13,0,19.5c0,7.9,0,15.7,0,23.6v0.5l0,0v1.2v2.3l0,0v1c0,8.5,0,16.9,0,25.4
		c0,6.9,0,13.8,0,20.7c0,0.1,0,0.2,0,0.3h-0.1C682.2,149,680.9,149,679.6,149z"/>
	<path class="st0" d="M115.3,35.2c-0.8-5.3-3.1-10.2-6.9-13.9c-3.7-3.7-8.9-6-14.6-6.1c-8.5-0.2-16.9-0.4-25.4-0.4
		c-8.8,0-17.6,0.1-26.3,0.4c-5.3,0.1-10.2,2.1-13.9,5.4c-3.6,3.3-6,7.8-7.1,12.8c-0.8,3.7-1,7.2-1,10.5c0,9.5,0,19,0,28.5
		s0,19,0,28.4c0,0.2,0.1,0.4,0.1,0.6c0,11.9-0.1,23.9-0.1,35.9c0,8.5,0,17.1,0.1,25.6c0.1,6.7,2.2,12.9,6.3,17.5
		c4.1,4.7,10.2,7.5,17,7.7c7.3,0.3,14.6,0.4,21.9,0.4c9.1,0,18.2-0.2,27.2-0.4c8.7-0.1,17-5.2,20.3-13.9c2.1-5.4,2.9-11.1,2.9-16.5
		c0.1-19.3,0.1-38.5,0.1-57.8c0-18.7,0-37.4,0-56.2C116,40.9,115.8,38,115.3,35.2z M104.3,157.7c0,4.3-0.7,8.8-2.1,12.4
		c-1.7,4.2-4.9,6.2-9.7,6.5c-9,0.2-18,0.4-26.9,0.4c-7.2,0-14.3-0.1-21.4-0.4c-4.1-0.2-6.8-1.6-8.8-3.8s-3.3-5.5-3.4-9.9
		c-0.1-8.5-0.1-17-0.1-25.5c0-12.1,0.1-24.3,0.1-36.4c0-0.2-0.1-0.4-0.1-0.6c0-9.3,0-18.6,0-27.9c0-9.5,0-19,0-28.5
		c0-2.9,0.2-5.7,0.7-8c0.7-3.1,2-5.3,3.6-6.7c1.6-1.4,3.5-2.3,6.3-2.4c8.7-0.2,17.3-0.4,26-0.4c8.4,0,16.7,0.1,25.1,0.4
		c2.9,0.1,5,1.1,6.7,2.7c1.7,1.7,3,4.2,3.5,7.4c0.4,2.3,0.6,4.6,0.6,6.9c0,18.7,0,37.4,0,56.2C104.4,119.2,104.4,138.5,104.3,157.7z
		"/>
	<path class="st0" d="M83.3,55v-2.7v-0.2c-0.1-2-0.7-4.5-2.6-6.6c-2-2.1-4.8-2.7-7-2.7h-0.3l0,0h-2.9c-1.8,0-3.6,0-5.5,0h-0.8
		c-1.4,0-2.6,0-4,0.2c-1,0.2-2.3,0.5-3.7,1.3L53.9,47c-0.9,1.5-1.1,2.9-1.2,4c-0.1,1.2-0.1,2.2-0.1,3.4c0,7.1,0,14.2,0,21.3
		c0,7.5,0,14.9,0,22.4c0,1.1,0,2.3,0,3.4l0,0c0,2.9,0,5.7,0,8.6c0,1.4,0,2.9,0,4.3l0,0v0.4c0,6.3,0,12.7,0,19c0,4.7,0,9.4,0,14.1
		c0,1.7,0,3.1,0.2,4.7c0.2,1.2,0.4,2.5,1.4,4.1c0.7,1.1,1.8,2.1,3,2.7c1.7,0.9,3.1,1,4.4,1.2c1.3,0.1,2.5,0.1,4,0.1h3h2.5
		c1.6,0,2.9,0,4.5-0.2c1.1-0.2,2.5-0.5,3.9-1.4c1.1-0.7,2.1-1.8,2.7-2.8c0.9-1.6,1.1-3,1.2-4.3c0.1-1.2,0.1-2.4,0.1-3.8
		c0-13.8,0-27.6,0-41.4C83.3,89.6,83.3,72.4,83.3,55L83.3,55z M70.9,149h-2.5h-2.9c-0.5,0-0.8,0-1.2,0c0-0.4,0-0.6,0-1
		c0-4.7,0-9.4,0-14.1c0-6.3,0-12.7,0-19v-0.4c0-1.4,0-2.9,0-4.3c0-2.9,0-5.7,0-8.6l0,0c0-1.1,0-2.3,0-3.4c0-7.5,0-14.9,0-22.4
		c0-7.1,0-14.2,0-21.3H65c1.8,0,3.6,0,5.5,0c0.4,0,0.8,0,1.1,0v0.6c0,17.2,0,34.4,0,51.6c0,13.8,0,27.6,0,41.4c0,0.3,0,0.5,0,0.8
		C71.4,149,71.2,149,70.9,149z"/>
	<path class="st0" d="M620.8,14.7c-11,0-21.7,0-32.8,0c-1.5,0-3,0.6-4.1,1.7s-1.7,2.6-1.7,4.1c0,21.3,0,42.3,0,63.7
		c-0.8,0-1.6,0-2.5,0c-1.2,0-2.5,0.1-3.8,0.1c0.1-9.4,0.1-18.8,0.1-28.2c0-10.4,0-20.7,0-31.1c0-1.8-0.1-3.4-0.2-4.7
		c-0.1-3.1-2.7-5.6-5.8-5.6c-11.1,0-21.7,0-32.4,0c-1.5,0-3,0.6-4.1,1.7s-1.7,2.6-1.7,4.1c0,54.3,0,108.3,0,162.3
		c0,1.5,0.6,3,1.7,4.1c1.1,1.1,2.6,1.7,4.1,1.7c11,0,21.7,0,32.6,0c1.5,0,3-0.6,4.1-1.7c1.1-1.1,1.7-2.6,1.7-4.1c0-1.9,0-3.4,0-5
		l0,0v-0.1c0-7.2,0-14.3,0-21.5c0-10.9,0-21.7,0.1-32.5c1.4,0,2.8-0.1,4.3-0.1c0.7,0,1.4,0,2.1,0c0,20.1,0,39.7,0,59.3
		c0,1.5,0.6,3,1.7,4.1c1.1,1.1,2.6,1.7,4.1,1.7c11.1,0,21.7,0,32.5,0c1.5,0,3-0.6,4.1-1.7c1.1-1.1,1.7-2.6,1.7-4.1
		c0-54.2,0-108.2,0-162.3c0-1.5-0.6-3-1.7-4.1C623.8,15.3,622.3,14.7,620.8,14.7z M571.7,112.1c-1.7,0.1-2.7,0.7-3.3,1.2
		c-1.1,0.9-1.6,1.5-2,2.1l-1.3,2.7c-0.3,1-0.6,1.9-0.7,3.4c-0.1,11.5-0.1,23.1-0.1,34.6c0,6.9,0,13.8,0,20.7c-7,0-13.9,0-20.9,0
		c0-50.1,0-100.3,0-150.6c6.9,0,13.9,0,20.9,0c0,9.9,0,19.8,0,29.7s0,19.8-0.1,29.7l0,0v0.2c0.1,2,0.1,4.4,2.1,7
		c1,1.2,2.5,2.1,3.8,2.6c1.3,0.4,2.5,0.5,3.6,0.5h1.1c1.6-0.1,3.2-0.1,4.9-0.1c2.6,0,5.3,0.1,8.3,0.1c1.5,0,3-0.6,4.1-1.7
		s1.7-2.6,1.7-4.1c0-21.4,0-42.5,0-63.7c7.1,0,14.1,0,21.1,0c0,50.2,0,100.3,0,150.6c-6.9,0-13.8,0-20.8,0c0-19.5,0-39.1,0-59.2
		c0-1.5-0.6-3-1.7-4.1c-1.1-1.1-2.6-1.7-4.1-1.7c-2.7,0-5.3,0-8,0C577.5,111.9,574.6,112,571.7,112.1z"/>
	<path class="st0" d="M828.8,20.3c-0.2-3.1-2.7-5.5-5.8-5.5c-11.1,0-21.8,0-32.7,0c-1.5,0-3,0.6-4.1,1.7s-1.7,2.6-1.7,4.1
		c0,1.9,0,3.4,0,5c0,21.9,0,43.7,0,65.6c0,17.6,0,35.1,0,52.7v0.2c0,2.2,0.1,3.8,0.1,5c-0.4,0-0.8,0-1.4,0c-1.1,0-2.3,0-3.8,0l0,0
		l0,0l0,0c-0.5,0-0.8,0-1.1,0c0-0.4,0-0.7,0-1.1c0-21.1,0-42.2,0-63.4c0-19.7,0-39.4,0-59.2c0-1.6,0-3.2,0-5c0-1.5-0.6-3-1.7-4.1
		c-1.1-1.1-2.6-1.7-4.1-1.7c-11.2,0-21.7,0-32.9,0c-1.5,0-3,0.6-4.1,1.7s-1.7,2.6-1.7,4.1c0,2,0,3.7,0,5.4c0,19.8,0,39.7,0,59.5
		c0,18,0,36,0,54.1v0.5c0,2.7,0,5.4,0,8.2c0,4.9,0,9.9,0.2,14.9l0,0c0.2,6.8,2,13,6.2,17.6c4.1,4.7,10.2,7.1,17.1,7.6
		c11.6,0.9,23.1,0.7,34.3,0.7h1c4.9,0,9.9-0.2,15-0.9c5.4-0.7,10.3-2.6,14-6.1c3.7-3.6,5.7-8.4,6.7-13.8c0.8-4.3,1-8.6,1-12.7
		c0-23,0-46.1,0-69.1c0-20.4,0-40.8,0-61.3C829,23.3,828.9,21.7,828.8,20.3z M778.2,151.1L778.2,151.1L778.2,151.1L778.2,151.1z
		 M817.3,155.5L817.3,155.5c0,3.7-0.2,7.3-0.8,10.6c-0.7,4-1.9,6.1-3.3,7.5c-1.4,1.3-3.5,2.4-7.4,3c-4.3,0.6-8.8,0.8-13.4,0.8h-1
		c-11.4-0.1-22.6,0.2-33.5-0.7c-4.9-0.4-7.5-1.8-9.3-3.8s-3-5.1-3.2-10.2c-0.2-4.8-0.2-9.7-0.2-14.6c0-2.7,0-5.4,0-8.2v-0.5l0,0
		c0-18,0-36,0-54.1c0-19.7,0-39.3,0-59c7.1,0,14.1,0,21.2,0c0,19.4,0,38.8,0,58.3c0,21.1,0,42.3,0,63.4c0,1.7,0,3.1,0.2,4.7
		c0.2,1.2,0.4,2.5,1.4,4c0.7,1.1,1.8,2.1,2.9,2.7c1.7,0.9,3.1,1.1,4.4,1.2c1.3,0.1,2.5,0.1,4,0.1l0,0l0,0l0,0c1.4,0,2.7,0,3.8,0
		c1.6,0,3,0,4.4-0.1c1-0.1,2.1-0.3,3.3-0.7c1.9-0.6,4.1-2.8,4.7-4.7c0.7-1.9,0.6-3.3,0.7-4.7c0-1.8-0.1-3.8-0.1-6.4v-0.2l0,0
		c0-17.6,0-35.1,0-52.7c0-21.6,0-43.1,0-64.7c7,0,14.1,0,21.2,0c0,20,0,40,0,60C817.4,109.4,817.4,132.5,817.3,155.5z"/>
	<path class="st0" d="M1014.5,88.5c-3.3-3.6-8-5.3-13-5.6c-8.2-0.6-16-0.4-23.6-0.5c0-2.5,0-4.9,0-7.4c0-3.6,0-7.2,0-10.8
		c0-2.6,0-5.2,0-7.8c2,0,3.9,0,5.9,0c3.6,0,7.2,0,10.8,0c2.3,0,4.7,0,7,0c3.7,0,7.4,0,11.4,0c1.7,0,3.4-0.8,4.5-2.1s1.6-3.1,1.3-4.8
		c-1.8-9.9-3.5-19.3-5.3-28.8c-0.3-1.6-1.2-3-2.6-3.8l-2.3-1.4c-0.9-0.6-2.1-0.9-3.2-0.9c-16,0.1-32.2,0-48.5,0.7
		c-12.3,0.5-21.6,10.7-21.7,22.8c-0.1,10.1-0.2,20.2-0.2,30.4c0,10.9,0.1,21.7,0.2,32.6c0,5.4,2,10.5,5.7,14
		c3.6,3.5,8.6,5.3,13.8,5.5c7.2,0.3,14.3,0.3,21.2,0.5c0,4.4,0,8.9,0,13.3c0,4.3,0,8.6,0,12.9c-3.3,0-6.5,0-9.8,0c-4.5,0-9,0-13.5,0
		h-0.4c-1.1,0-2.2,0-3.4,0c-1.8,0-3.8,0-5.8,0c-1.7,0-3.4,0.8-4.5,2.1s-1.6,3.1-1.2,4.8c2,10.4,3.9,20.2,5.7,29.5
		c0.5,2.8,2.9,4.7,5.7,4.7c9.6,0,19.1,0.2,28.6,0.2c6.4,0,12.7-0.1,19.2-0.4c6.7-0.3,12.8-2.7,16.8-7.2c4.1-4.6,5.8-10.6,5.9-17.3
		c0.1-10.6,0.2-21.2,0.2-31.7c0-10-0.1-20-0.1-30C1019.2,96.9,1017.9,92.1,1014.5,88.5z M1007.4,163.5c-0.1,4.8-1.3,7.8-2.9,9.6
		c-1.6,1.8-4.1,3.1-8.7,3.4c-6.1,0.3-12.3,0.4-18.6,0.4c-7.8,0-15.7-0.1-23.8-0.2c-1.1-5.8-2.3-11.7-3.4-17.9c0.7,0,1.4,0,2.2,0h0.4
		c4.5,0,9,0,13.5,0c3.4,0,6.9,0,10.3,0c1.3,0,2.5,0,3.8-0.3c1-0.2,2.2-0.5,3.4-1.3c1.9-1.2,3.2-3.4,3.5-5c0.4-1.6,0.4-2.9,0.4-4.3
		c0-4.6,0-9.1,0-13.7c0-4.6,0-9.1,0-13.7c0-1.3,0-2.5-0.3-3.8c-0.2-1-0.5-2.2-1.3-3.5c-1.2-2-3.5-3.1-5.1-3.5s-2.9-0.4-4.4-0.5
		c-7.3-0.3-14.4-0.2-21.4-0.5c-3.1-0.1-5-1.1-6.2-2.2c-1.2-1.2-2-2.8-2.1-5.7c-0.1-10.8-0.2-21.6-0.2-32.4c0-10.1,0.1-20.1,0.2-30.2
		c0.2-6.5,4.4-10.9,10.5-11.3c14.9-0.7,30-0.6,45.2-0.6c1.2,6,2.3,12.2,3.4,18.4c-1.4,0-3,0-4.4,0c-2.4,0-4.7,0-7,0
		c-3.6,0-7.2,0-10.8,0c-2.2,0-4.5,0-6.7,0h-0.1c-2.4,0-5.4,0.5-7.8,2.8c-2.4,2.3-3,5.4-3,7.9v0.2l0,0c0,2.9,0,5.8,0,8.7
		c0,3.6,0,7.2,0,10.8c0,2.6,0,5.2,0,7.8l0,0c0,1.3,0.1,2.6,0.4,4.1c0.4,2.1,2.3,5,4.7,6c2.3,1.1,4.2,1.2,6.2,1.2
		c8,0.2,15.7,0,23.1,0.5c3.2,0.3,4.6,1.1,5.3,1.9c0.8,0.8,1.5,2.3,1.6,5.5c0.1,10,0.1,20,0.1,29.9
		C1007.6,142.4,1007.6,153,1007.4,163.5z"/>
	<path class="st0" d="M485.6,14.6c-21.1,0-41.8,0-62.7,0c-1.5,0-3,0.6-4.1,1.7s-1.7,2.6-1.7,4.1c0,54.3,0,108.4,0,162.5
		c0,1.5,0.6,3,1.7,4.1s2.6,1.7,4.1,1.7c20.6,0,40.9,0,61.4,0c2.8,0,5.2-2,5.8-4.8c1.8-9.9,3.6-19.8,5.5-30.1
		c0.3-1.7-0.1-3.5-1.3-4.8c-1.1-1.3-2.8-2.1-4.5-2.1c-9.6,0-18.9,0-28.3,0c0-2.1,0-4.3,0-6.4c0-5.9,0-11.7,0.1-17.5
		c1.2,0,2.3-0.1,3.5-0.1c2.2,0,4.5,0,6.8,0h0.1c1.3,0,2.6,0,4,0c2.1,0,4.2,0,6.3,0c1.5,0,3-0.6,4.1-1.7s1.7-2.6,1.7-4.1
		c0-9.7,0-18.5,0-27.9c0-1.5-0.6-3-1.7-4.1s-2.6-1.7-4.1-1.7c-7,0-13.7,0-20.6,0c0-9.1,0-18.1,0-27.2c9.8,0,19.5,0,29.3,0
		c1.7,0,3.4-0.8,4.5-2.1s1.6-3.1,1.3-4.8c-1.9-10.3-3.7-20.1-5.5-29.9C490.8,16.6,488.4,14.6,485.6,14.6z M472.1,111.3H472
		c-2.2,0-4.5,0-6.8,0s-4.6,0-7,0.1c-1.1,0-2.2,0.4-3.1,1l-2.6,1.8c-1.6,1.1-2.5,2.8-2.5,4.7c-0.1,7.2-0.1,14.4-0.1,21.6
		c0,4.1,0,8.1,0,12.3c0,1.5,0.6,3,1.7,4.1s2.6,1.7,4.1,1.7c9.1,0,18,0,27.1,0c-1.1,6.2-2.3,12.3-3.4,18.4c-16.9,0-33.7,0-50.7,0
		c0-50.2,0-100.4,0-150.8c17.3,0,34.6,0,52,0c1.1,6,2.2,12.1,3.4,18.2c-9.4,0-18.7,0-28.2,0c-1.5,0-3,0.6-4.1,1.7
		c-1.1,1.1-1.7,2.6-1.7,4.1c0,13.2,0,25.8,0,38.9c0,1.5,0.6,3,1.7,4.1s2.6,1.7,4.1,1.7c6.9,0,13.7,0,20.6,0c0,5.3,0,10.7,0,16.2
		c-0.1,0-0.3,0-0.4,0C474.7,111.3,473.4,111.3,472.1,111.3z"/>
	<path class="st0" d="M394.5,56.3c1.6,0,3.3,0,5,0c2.7,0,5.5,0,8.4,0c1.7,0,3.4-0.8,4.5-2.1s1.6-3.1,1.3-4.8
		c-1.9-10.4-3.8-20.2-5.6-30c-0.5-2.8-2.9-4.8-5.7-4.8c-9,0-17.9-0.2-26.9-0.2c-5.9,0-11.9,0.1-17.8,0.4c-6.8,0.3-12.9,2.7-16.9,7.4
		c-4.1,4.6-5.8,10.8-5.8,17.5c0,15.5-0.1,31-0.1,46.5c0,25.4,0.1,50.7,0.2,76.1c0,7,1.8,13.4,6,18.2c4.3,4.8,10.5,7.2,17.6,7.7
		c12.8,0.9,25.5,0.6,37.8,0.8h2.2c1.2,0,2.4,0,3.6,0c2.8,0,5.2-2,5.7-4.8c2-10.2,3.8-20,5.8-30.2c0.3-1.7-0.1-3.5-1.2-4.8
		s-2.8-2.1-4.5-2.1c-5.7,0-11.3,0-16.8,0c-3.7,0-7.4,0-11,0c-0.2,0-0.3,0-0.5,0c0-0.2,0-0.3,0-0.5c0-9.9,0-19.7,0-29.6
		c0-10.8,0-21.6,0-32.5c0-5.8,0-11.6,0-17.3c0-3.6,0-7.3,0-10.9c1.8,0.1,3.6,0.1,5.4,0.1C388.2,56.4,391.3,56.3,394.5,56.3z
		 M391.1,158.8c3.2,0,6.5,0,9.7,0c-1.2,6.1-2.3,12.3-3.5,18.5h-0.8c-12.6-0.2-25.1,0.2-37.1-0.7c-5.1-0.4-7.9-1.9-9.7-3.8
		c-1.8-2-3-5.2-3.1-10.5c-0.1-25.3-0.2-50.7-0.2-76c0-15.5,0-31,0.1-46.5c0-4.8,1.2-7.9,2.9-9.8c1.7-1.9,4.2-3.2,8.8-3.5
		c5.7-0.3,11.4-0.4,17.2-0.4c7.2,0,14.6,0.1,22,0.2c1.1,6,2.3,12.1,3.4,18.3c-0.5,0-0.9,0-1.4,0c-1.7,0-3.3,0-5,0
		c-3.3,0-6.5,0.1-9.6,0.1c-2.1,0-4.1,0-6.2-0.1h-0.7c-1.3,0-2.6,0.1-4,0.6c-2.1,0.7-4.2,2.5-5.1,4.5c-1,2-1.1,3.8-1.1,5.5v0.2l0,0
		c0,4,0,7.9,0,11.9c0,5.8,0,11.5,0,17.3c0,10.8,0,21.6,0,32.5c0,9.9,0,19.7,0,29.6c0,1.6,0,2.9,0.2,4.4c0.2,1.1,0.4,2.4,1.3,3.9
		c0.7,1.1,1.7,2.1,2.8,2.7c1.6,0.9,3,1.1,4.2,1.2c1.2,0.1,2.3,0.1,3.6,0.1C383.7,158.8,387.4,158.8,391.1,158.8z"/>
	<path class="st0" d="M271.7,14.7c-21.2,0-42,0-62.7,0c-1.5,0-3,0.6-4.1,1.7s-1.7,2.6-1.7,4.1c0,54.3,0,108.3,0,162.3
		c0,1.5,0.6,3,1.7,4.1c1.1,1.1,2.6,1.7,4.1,1.7c11.1,0,21.8,0,32.8,0c1.5,0,3-0.6,4.1-1.7c1.1-1.1,1.7-2.6,1.7-4.1
		c0-1.8,0-3.4,0-4.9l0,0v-1.5c0-9.3,0-18.6,0-27.9c0-8.5,0-17,0-25.5c2.6,0,5.3,0,7.9,0c4.3,0,8.6,0,13,0c1.5,0,3-0.6,4.1-1.7
		s1.7-2.6,1.7-4.1c0-9.4,0-18.3,0-27.7c0-1.5-0.6-3-1.7-4.1s-2.6-1.7-4.1-1.7c-6.9,0-13.7,0-20.6,0c0-9.2,0-18.3,0-27.4
		c9.8,0,19.5,0,29.3,0c1.7,0,3.4-0.8,4.5-2.1s1.6-3.1,1.3-4.8c-1.9-10.2-3.7-20.1-5.6-29.9C276.9,16.7,274.5,14.7,271.7,14.7z
		 M247,111.3c-1.3,0-2.4,0-3.7,0.1c-1,0.1-2.2,0.3-3.7,1.2c-1.1,0.6-2.1,1.8-2.6,2.8c-0.8,1.6-0.9,2.9-1,3.9s-0.1,2-0.1,3.1
		c0,8.7,0,17.4,0,26c0,9.3,0,18.6,0,27.9v0.6c-7,0-14.1,0-21.1,0c0-50.1,0-100.2,0-150.6c17.2,0,34.5,0,52,0c1.1,6,2.2,12,3.4,18.2
		c-9.4,0-18.6,0-28.1,0c-1.5,0-3,0.6-4.1,1.7c-1.1,1.1-1.7,2.6-1.7,4.1c0,13.1,0,25.9,0,39.1c0,1.5,0.6,3,1.7,4.1
		c1.1,1.1,2.6,1.7,4.1,1.7c7,0,13.7,0,20.6,0c0,5.3,0,10.6,0,16c-2.4,0-4.8,0-7.2,0C252.7,111.3,249.9,111.3,247,111.3z"/>
	<path class="st0" d="M189.8,14.6c-21.1,0-41.9,0-62.8,0c-1.5,0-3,0.6-4.1,1.7s-1.7,2.6-1.7,4.1c0,54.2,0,108.3,0,162.4
		c0,1.5,0.6,3,1.7,4.1s2.6,1.7,4.1,1.7c11,0,21.7,0,33.1,0c1.5,0,3-0.6,4.1-1.7c1.1-1.1,1.7-2.6,1.7-4.1c0-20,0-39.9,0-60.1
		c7.1,0,13.9,0,20.7,0c1.5,0,3-0.6,4.1-1.7s1.7-2.6,1.7-4.1c0-9.4,0-18.3,0-27.6c0-1.5-0.6-3-1.7-4.1c-1.1-1.1-2.6-1.7-4.1-1.7
		c-6.9,0-13.7,0-20.6,0c0-9.1,0-18.1,0-27.3c9.8,0,19.5,0,29.3,0c1.7,0,3.4-0.8,4.5-2.1s1.6-3.1,1.3-4.8
		c-1.9-10.3-3.7-20.1-5.5-29.9C195,16.6,192.6,14.6,189.8,14.6z M156,46.2c-1.1,1.1-1.7,2.6-1.7,4.1c0,13.2,0,25.8,0,39
		c0,1.5,0.6,3,1.7,4.1c1.1,1.1,2.6,1.7,4.1,1.7c6.9,0,13.7,0,20.6,0c0,5.3,0,10.6,0,15.9c-6.7,0-13.5,0-20.7,0c-1.5,0-3,0.6-4.1,1.7
		s-1.7,2.6-1.7,4.1c0,20.2,0,40.1,0,60.1c-7.2,0-14.3,0-21.4,0c0-50.2,0-100.4,0-150.7c17.4,0,34.6,0,52.1,0c1.1,6,2.2,12,3.4,18.2
		c-9.4,0-18.7,0-28.2,0C158.6,44.5,157.1,45.2,156,46.2z"/>
	<path class="st0" d="M323.2,14.7c-10.7,0-21.1,0-31.5,0c-1.5,0-3,0.6-4.1,1.7s-1.7,2.6-1.7,4.1c0,54.3,0,108.3,0,162.4
		c0,1.5,0.6,3,1.7,4.1s2.6,1.7,4.1,1.7c10.6,0,20.8,0,31.5,0c1.5,0,3-0.6,4.1-1.7c1.1-1.1,1.7-2.6,1.7-4.1c0-54.3,0-108.4,0-162.4
		c0-1.5-0.6-3-1.7-4.1C326.3,15.4,324.8,14.7,323.2,14.7z M317.4,177.2c-6.6,0-13.2,0-19.8,0c0-50.2,0-100.4,0-150.7
		c6.5,0,13.2,0,19.8,0C317.4,76.6,317.4,126.8,317.4,177.2z"/>
	<path class="st0" d="M1047.2,144.9h-0.2c-12.6,0.1-22.9,10.3-23.1,23l0,0v0.2l0,0l0,0v0.1c0,12.7,10.3,23,23.1,23h0.2
		c12.7-0.1,22.9-10.2,23-22.8v-0.1l0,0C1070.2,155.4,1059.9,145,1047.2,144.9z M1047.1,179.4L1047.1,179.4c-6.4,0-11.5-5-11.5-11.3
		l0,0c0-3.1,1.3-6,3.4-8.1s4.9-3.4,8-3.4h0.1c6.3,0.1,11.4,5.2,11.4,11.6v0.1C1058.4,174.5,1053.6,179.3,1047.1,179.4z"/>
</g>
</svg>
